<svg version="1.2" xmlns="http://www.w3.org/2000/svg" viewBox="0 0 577 316" width="577" height="316">
	<title>Untitled design</title>
	<style>
		.s0 { fill: #c74124 } 
		.s1 { fill: #ff66c4 } 
		.s2 { fill: #0025cc } 
		.s3 { fill: #9f2a22 } 
		.s4 { fill: #e25026 } 
		.s5 { fill: #0e0f1a } 
		.s6 { fill: #ffffff } 
	</style>
	<path id="Path 0" class="s0" d="m482.8 180.1c-0.4 0.8-0.6 9.2-0.5 18.7 0.1 10.7 0.6 17.2 1.2 17.2 0.6 0 1.1-6.7 1.2-17.7 0.2-9.8 0-18.2-0.5-18.7-0.4-0.5-1-0.3-1.4 0.5zm-367.1 63.1c-0.8 1.8-3 8.2-4.7 14.3-1.7 6.1-4 16.1-5 22.3-1.3 7.1-2 15.8-2 23.7v12.5c15.1 0 16.5-0.3 20.3-2.9 2.3-1.5 5.4-4.3 6.8-6.2 1.4-1.9 3.6-5.3 4.8-7.6 1.1-2.4 2.8-7.3 3.7-11 1.1-4.7 1.5-9.6 1.1-15.8-0.3-6.6-1.1-10.5-2.8-14.4-1.3-3-4.2-7-6.4-9.1-2.2-2-5.8-4.2-8-4.9-2.2-0.7-4.5-2-5.1-2.7-0.9-1.2-1.4-0.8-2.7 1.8zm39.3 66.3c-2.5 0.8-5.8 2.6-7.5 3.9l-3 2.5c22.1 0.1 28.5-0.2 28.5-0.6 0-0.5-1-1.8-2.2-3-1.3-1.2-3.5-2.6-5-3.2-1.6-0.6-3.6-1.1-4.5-1-1 0-3.8 0.7-6.3 1.4z"/>
	<path id="Path 1" class="s1" d="m487 137c-1.9 1.9-2 3.3-2 43 0 39.7 0.1 41.1 2 43 1.9 1.9 3.3 2 43 2 39.7 0 41.1-0.1 43-2 1.9-1.9 2-3.3 2-43 0-39.7-0.1-41.1-2-43-1.9-1.9-3.3-2-43-2-39.7 0-41.1 0.1-43 2z"/>
	<path id="Path 2" class="s2" d="m49.3 124.2c-0.6 0.7-4 6.9-7.6 13.8-3.5 6.9-8.6 16.6-11.2 21.5-2.6 4.9-6.9 13.1-9.5 18-2.6 4.9-8 15.3-12 23-6 11.6-7 14.2-5.9 15.2 1.1 1 12.9 1.3 48.9 1.3 37.5 0 47.6-0.2 48.2-1.2 0.4-0.7-1.6-5.6-4.6-11.3-3-5.5-9.3-17.7-14.1-27-4.8-9.3-11.3-21.7-14.3-27.5-3.1-5.8-7.5-14.1-9.8-18.5-2.3-4.4-4.8-8.1-5.6-8.3-0.8-0.2-1.9 0.3-2.5 1z"/>
	<path id="Path 3" class="s3" d="m203.5 4.1c-1.7 0.7-4.2 2.3-5.8 3.8-1.5 1.4-2.9 3.8-3.2 5.4-0.3 1.5 0.3 4.6 1.3 7 1 2.3 3.6 5.9 5.8 8 2.1 2.1 5.5 4.5 7.4 5.4 1.9 0.9 5.8 1.6 8.5 1.6 2.8 0 6.3-0.7 8-1.5 1.7-0.9 4.3-3.1 5.8-4.9l2.8-3.4c4.7 4.6 8.5 9.6 11.4 14 3 4.4 6.9 11.6 8.8 16 1.9 4.4 4.4 11.4 5.5 15.5 1.2 4.1 2.8 11.1 3.6 15.5 0.8 4.4 1.8 12.6 2.3 18.2l0.8 10.1c5.4-0.8 7.6-1.2 8.3-1.4 0.7-0.2 1.2-2.1 1.2-4.6 0-2.4-0.7-9-1.5-14.8-0.9-5.8-2.4-14.1-3.4-18.5-1.1-4.4-3.4-12-5.1-17-1.8-5-4.6-11.7-6.2-15-1.7-3.3-4.3-7.8-5.8-10-1.5-2.2-4.7-6.2-7-9-2.4-2.7-7.1-7.2-10.4-9.9-3.4-2.7-8.9-6.2-12.4-7.8-3.5-1.6-8.7-3-12-3.3-3.1-0.2-7 0-8.7 0.6zm135 10.3c-2.2 0.7-5.6 2.1-7.5 3.1-1.9 1-5.8 3.5-8.5 5.5-2.8 2.1-6.9 5.7-9.1 8.1-2.3 2.4-5.8 6.7-7.9 9.4-2.1 2.8-5.5 8.6-7.8 13-2.2 4.4-5.4 12.5-7.2 18-1.8 5.5-4.2 14.7-5.3 20.5-1.1 5.8-2.3 12.6-2.6 15.3l-0.6 4.7c5.8 1.5 8.1 2 8.7 2 0.9 0 1.7-3.2 2.4-9.8 0.6-5.3 2.1-13.7 3.4-18.7 1.2-5 3.7-12.6 5.4-17 1.7-4.4 5.3-11.6 8.1-16 2.7-4.4 6.7-10 8.9-12.5l4-4.5c5.9 5.7 8.8 7.9 10.3 8.4 1.6 0.6 4.9 1.1 7.5 1.1 3.6 0 6.1-0.8 10.3-3.2 3.6-2.2 6.6-5 8.8-8.3 2.3-3.6 3.3-6.1 3.3-9-0.1-3-0.7-4.6-2.8-6.7-1.6-1.5-4-3.2-5.6-3.7-1.5-0.6-4.8-1.1-7.5-1-2.6 0-6.5 0.6-8.7 1.3zm92 191.1c-1.3 1.3-1.3 1.9 0.7 5.3 1.1 2 3.8 7.1 5.8 11.2 2 4.1 4.5 9.7 5.6 12.3 1.5 3.7 2.4 4.8 4.1 4.7 1.3 0 2.5-0.4 2.8-1 0.3-0.6-1.1-4.9-3-9.7-2-4.9-5.5-12.1-7.8-16.1-2.3-4-4.8-7.4-5.5-7.7-0.6-0.2-1.9 0.2-2.7 1zm-305 1.3c-1 0.9-3.2 4.9-5 8.7-1.8 3.9-4.3 10.3-5.6 14.3-2.1 6.3-2.2 7.4-0.9 8.1 0.8 0.5 2.3 0.7 3.3 0.5 0.9-0.2 1.6-0.7 1.6-1.1-0.1-0.5-0.1-1.1 0-1.5 0-0.5 0.2-1.1 0.4-1.5 0.2-0.5 0.7-2.1 1.2-3.8 0.5-1.6 2.6-6.6 4.8-11 2.2-4.4 4.3-9 4.8-10.2 0.7-1.8 0.5-2.5-1-3.3-1.5-0.8-2.4-0.6-3.6 0.8z"/>
	<path id="Path 4" class="s4" d="m177 73.1c-4.1 1.1-10 3.3-13 4.9-3 1.7-7.8 4.9-10.5 7.3-2.8 2.4-6.8 7-9 10.3-2.1 3.2-5 8.8-6.3 12.4-1.3 3.6-2.8 8.8-3.3 11.5-0.5 2.8-1 9.3-1 14.5 0 5.5 0.7 12.1 1.6 15.5 0.9 3.3 3.1 8.6 4.8 11.9 1.8 3.2 5.8 8.3 8.9 11.2l5.8 5.4c-9.4 11.2-14.5 18-17.3 22.2-2.9 4.3-5.6 7.8-6.2 7.8-0.6 0-2.5 3.5-4.4 7.8-1.9 4.2-4.2 9.5-5.2 11.7-1 2.2-1.9 5.1-2.1 6.5-0.2 1.4-0.7 3.1-1.1 3.8-0.4 0.6-1.2 1-1.7 0.7-0.5-0.3-1 0.5-1 1.8 0 1.7 0.2 1.9 0.9 0.7 0.7-1.3 0.9-1.3 1.3 0 0.3 0.8 2.4 2.1 4.7 2.8 2.2 0.6 6 2.9 8.4 5.1 2.3 2.1 5.3 6.2 6.6 9.2 1.7 3.9 2.5 7.8 2.8 14.4 0.4 6.2 0 11.1-1.1 15.8-0.9 3.7-2.7 9-4.1 11.7-1.4 2.8-4.2 6.7-6.2 8.8-2.1 2.1-4.9 4.5-6.3 5.4-2.4 1.6-2 1.7 9.3 1.7 11.4 0.1 11.8 0 15.9-2.9 2.4-1.7 6.3-3.5 8.8-4.1 3.1-0.8 5.6-0.8 8-0.1 1.9 0.6 4.7 2.5 6.2 4.1l2.8 3.1h284c1-8.9 0.9-15.6 0.6-20.5-0.4-4.9-1.8-14.4-3.1-21-1.3-6.6-3.8-16.5-5.5-22-1.7-5.5-3.2-10.7-3.3-11.5-0.1-0.8-0.9-1.8-1.7-2.1-0.8-0.3-1.9-1.9-2.3-3.5-0.5-1.6-2.9-7.2-5.3-12.4-2.5-5.2-5.4-10.7-6.5-12.2-1-1.6-1.7-3-1.4-3.3 0.3-0.3-1.8-3.8-4.7-7.7-2.9-4-7.3-9.8-9.8-12.8-2.5-3-5.1-6.3-5.8-7.2-1-1.6-0.4-2.6 4.6-7.5 3.2-3.2 7.2-8.5 8.9-11.8 1.8-3.3 3.9-8.9 4.7-12.5 0.9-3.6 1.6-9.8 1.6-13.7 0-4-0.6-10.6-1.4-14.5-0.8-4-2.6-10.2-4-13.8-1.4-3.6-4.8-9.3-7.4-12.8-2.6-3.4-7.2-8.1-10.2-10.3-3-2.3-8-5.3-11-6.6-3-1.4-8.4-3.1-12-3.9-3.6-0.7-10.6-1.4-15.5-1.4-4.9 0-12.1 0.7-16 1.5-3.9 0.9-10.3 3.1-14.3 5-4.8 2.4-9.3 5.5-13.5 9.8-3.4 3.4-7.7 8.9-9.4 12.2-1.7 3.3-3.7 8.3-4.3 11-0.7 2.8-1.4 5.6-1.6 6.3-0.3 0.9-1.2 1-4.2 0.1-2-0.6-6.7-1.6-10.3-2.3-3.7-0.6-6.5-0.8-6.3-0.3 0.2 0.4-0.4 0.4-1.3 0-1-0.3-2.2-0.8-2.8-1.1-0.6-0.3-2.4-0.5-4-0.5-1.6 0-3.7 0.3-4.5 0.5-0.8 0.3-5.1 1.2-9.5 2.1-4.4 0.9-8.7 1.8-9.5 2.2-1.2 0.4-1.8-0.8-2.9-5.2-0.8-3.2-2.9-8.7-4.7-12.3-1.9-3.7-5.8-9-9.1-12.3-3.2-3.2-8.7-7.3-12.3-9.2-3.6-1.9-10.1-4.3-14.5-5.5-5.6-1.4-11-2-18-2-6.6 0.1-12.5 0.8-17.5 2.1zm294.5 110.2c-4.9 2.4-15 8-22.3 12.5-7.2 4.5-13.4 8.6-13.7 9.2-0.3 0.6 0.3 2.2 1.4 3.8 1 1.5 3.2 5.4 4.8 8.7 1.6 3.3 4 8.7 5.3 12 1.3 3.3 2.6 6.4 2.9 6.8 0.3 0.5 4.7-1.2 9.6-3.7 4.9-2.5 12.1-6.7 15.8-9.3l6.9-4.8c0.2-32.3-0.1-39.5-0.7-39.5-0.6 0-5.1 1.9-10 4.3zm-387.5-1.5c0 0.4 3.6 7.7 8.1 16.2 4.5 8.5 8.3 16.2 8.4 17 0.2 1.2-1.5 1.6-8.4 2-6.5 0.4-8.7 0.9-8.9 2-0.2 1 2.5 3.4 7.5 6.6 4.3 2.8 11.1 6.8 15.1 8.8 7.1 3.5 7.2 3.6 7.2 1.4 0-1.3 0.6-3.6 1.5-5.3 0.8-1.6 1.5-3.8 1.5-4.7 0-1 2.1-5.7 4.6-10.5 2.5-4.9 5.1-9.1 5.7-9.4 0.7-0.4-1.9-2.7-6.3-5.7-4.1-2.7-13.1-8.2-20-12.1-6.9-3.9-13.3-7.1-14.2-7.1-1 0-1.8 0.3-1.8 0.8z"/>
	<path id="Path 5" class="s0" d="m211.5 197.1c-1.1 0.5-2.8 2.3-3.8 3.9-0.9 1.7-1.7 3.9-1.7 5 0 1.1 1.3 3.2 2.8 4.8 1.5 1.5 4.1 3 5.8 3.3 1.6 0.4 3.9 0.3 5.2-0.2 1.2-0.5 2.5-1.9 2.8-3.1 0.3-1.3-0.2-4.1-1.1-6.3-0.9-2.2-2.6-5-3.8-6.3-1.2-1.2-2.6-2.2-3.2-2.2-0.6 0.1-1.9 0.6-3 1.1zm200 77c-1.6 0.5-4.5 2.4-6.3 4.2-2.2 2.1-3.4 4.5-3.9 7.2-0.3 2.2 0 5.7 0.6 7.8 0.8 2.6 2.3 4.5 5.3 6.5 3.5 2.2 5.2 2.7 10.7 2.7 4.6 0 7.8-0.6 10.5-2 2.1-1.1 4.7-3.5 5.7-5.5 1.1-1.9 1.9-5.1 1.9-7 0-1.9-0.9-5.3-1.8-7.5-1.3-2.8-3-4.5-5.5-5.7-2.2-1.1-5.8-1.8-8.9-1.7-2.9 0.1-6.7 0.5-8.3 1z"/>
	<path id="Path 6" class="s5" d="m253.3 174.9c-1.8 1.2-4 3.7-4.8 5.6-0.9 2-1.5 6.5-1.5 10.5 0 4.8 0.7 8.8 2.2 12.7 1.4 3.6 3.8 7.4 6.5 10 2.4 2.4 6.4 5.3 9 6.4 2.7 1.2 7.3 2.5 10.3 3 3.4 0.5 8 0.5 12-0.2 3.6-0.6 8.7-2.2 11.4-3.7 2.7-1.5 6.5-4.5 8.4-6.7 2-2.2 4.7-6.5 6.1-9.5 1.5-3.4 2.6-8 2.8-12 0.3-4.9 0-7.4-1.4-10-1-2-3.3-4.3-5.3-5.2-1.9-1-5.3-1.8-7.5-1.8-2.7 0-6.4 1.2-11.8 4-6.7 3.5-8 3.9-10.5 2.9-1.5-0.6-4.7-2.5-7.2-4.2-3.4-2.4-5.8-3.2-10-3.5-4.2-0.2-6.2 0.2-8.8 1.7z"/>
	<path id="Path 7" class="s6" d="m181.5 79.6c-3.8 0.9-10 3.1-13.8 5-3.7 1.9-8.8 5.6-11.4 8.2-2.7 2.6-6.2 7.5-8 10.7-1.8 3.3-3.9 8.3-4.8 11-0.8 2.8-1.8 9.5-2.2 15q-0.6 10 0.7 15.5c0.7 3 2.4 8 3.8 11 1.4 3 4.9 7.8 7.6 10.6 3.2 3.3 7.9 6.5 12.6 8.8 4.2 2 10.6 4.1 14.5 4.7 3.8 0.6 10.4 0.9 14.5 0.6 4.1-0.3 10.4-1.3 14-2.2 3.6-0.9 9-2.9 12-4.3 3-1.5 8.2-5.2 11.5-8.3 3.4-3.2 7.2-8 8.7-11 1.5-3 3.4-8.1 4.3-11.4 0.9-3.3 1.6-10 1.6-15 0-4.9-0.5-11.2-1.1-14-0.6-2.7-2.2-7.2-3.5-10-1.3-2.7-4.1-7-6.3-9.5-2.1-2.5-6.1-6-8.8-7.7-2.7-1.8-8.3-4.4-12.4-5.9-5.4-1.8-10.2-2.7-17-3-6.4-0.2-11.8 0.1-16.5 1.2zm177-1c-1.6 0.3-5.5 1.2-8.5 2.1-3 0.8-7.7 2.7-10.5 4.1-2.7 1.4-7.5 4.9-10.5 7.7-3 2.9-6.7 7.5-8.2 10.1-1.5 2.7-3.4 7.8-4.2 11.4-0.9 3.6-1.6 9.3-1.6 12.8 0 3.4 0.7 9.7 1.6 14 0.9 4.4 3.1 10.7 5.2 14.6 2.3 4.2 5.7 8.7 8.7 11.4 2.8 2.4 7.7 5.7 11 7.3 3.3 1.6 8.5 3.6 11.5 4.4 3 0.9 9.6 1.8 14.5 2.1 6.5 0.4 11.1 0.1 16.5-1 4.1-0.9 9.8-2.7 12.5-3.9 2.8-1.3 7.2-4.3 9.9-6.7 2.7-2.5 6.2-6.5 7.9-9 1.7-2.5 3.8-6.7 4.8-9.5 0.9-2.7 2-7.9 2.4-11.5 0.5-4.4 0.2-9.5-0.9-16-1.1-6-2.9-12.1-5-16.5-1.8-3.8-5.1-9-7.2-11.4-2.2-2.5-6.6-6.2-9.9-8.3-3.3-2.2-8.9-4.8-12.5-5.9-3.7-1.1-10.4-2.1-15.5-2.4-4.9-0.2-10.4-0.1-12 0.1z"/>
	<path id="Path 8" class="s5" d="m185.5 92.9c-2.2 0.5-5.9 1.8-8.3 3-2.3 1.1-5.8 3.8-7.8 5.8-1.9 2.1-4.6 6-5.9 8.8-1.3 2.7-2.9 8.1-3.6 12-0.6 3.8-1 10.1-0.7 14 0.3 4.8 1.2 8.8 3 12.5 1.5 3.1 4.5 7.1 6.9 9.3 2.4 2.1 6.9 4.7 9.9 5.9 4.3 1.7 7.8 2.2 15.5 2.2 8.6 0.1 10.7-0.2 15.4-2.4 3-1.4 7.2-4.5 9.4-7 2.3-2.5 4.9-6.3 5.9-8.5 0.9-2.2 2.2-7.6 2.9-12 0.9-6 0.9-9.7 0-14.8-0.6-3.7-2.1-8.6-3.2-11-1.2-2.3-3.6-5.9-5.3-8.1-1.8-2.2-5.6-5.1-9.1-6.7-4.5-2.3-7.8-3.1-13.5-3.4-4.1-0.2-9.3 0-11.5 0.4zm172.5 0.7c-3 0.8-6.9 2.4-8.5 3.4-1.6 1-4.4 3.4-6.2 5.2-1.8 1.8-4.5 6-6 9.3-2.6 5.6-2.8 6.9-2.8 18 0.1 10.3 0.4 12.9 2.5 18 1.6 3.8 4.2 7.7 7.2 10.7 3.8 3.8 6.2 5.2 11.5 6.8 3.8 1.1 8.9 2 11.5 2 2.7 0 7.2-0.5 10-1.1 2.9-0.6 7.3-2.2 9.8-3.4 2.5-1.2 6-3.8 7.9-5.6 1.8-1.9 4.2-5.1 5.2-7.2 1.1-2 2.4-6.7 3-10.5 0.9-5.3 0.8-8.5-0.4-15.2-0.8-4.7-2.7-11.2-4.3-14.4-1.7-3.4-4.8-7.5-7.4-9.8-2.5-2.1-6.5-4.6-9-5.4-2.5-0.8-7.6-1.7-11.5-2-4.5-0.2-8.9 0.1-12.5 1.2z"/>
</svg>