<?xml version="1.0" encoding="UTF-8" standalone="no"?>
<!-- Created with Inkscape (http://www.inkscape.org/) -->

<svg
   version="1.1"
   id="svg1"
   width="0.001"
   height="0.001"
   viewBox="0 0 0.001 0.001"
   xml:space="preserve"
   xmlns="http://www.w3.org/2000/svg"
   xmlns:svg="http://www.w3.org/2000/svg"><defs
     id="defs1" /><g
     id="g30"
     transform="translate(-55.964311,57.610325)"><path
       style="fill:#fc64c2"
       d="M 476.73938,176.97829 477,133.95658 l 43.25001,-0.22829 43.25,-0.22829 v 43.25 L 563.5,220 h -43.51062 -43.51063 z"
       id="path36" /><path
       style="fill:#ea8b6f"
       d="m 94.694949,309.5 c 0.02038,-1.65 0.244498,-2.20394 0.498042,-1.23097 0.253543,0.97297 0.236869,2.32297 -0.03705,3 C 94.882014,311.94606 94.674569,311.15 94.694949,309.5 Z m 354.133191,-9 c 0.004,-3.85 0.18518,-5.30246 0.40166,-3.2277 0.21647,2.07477 0.21284,5.22477 -0.008,7 -0.22091,1.77524 -0.39803,0.0777 -0.39359,-3.7723 z M 94.732003,290 c 0,-1.925 0.205795,-2.7125 0.457323,-1.75 0.251527,0.9625 0.251527,2.5375 0,3.5 -0.251528,0.9625 -0.457323,0.175 -0.457323,-1.75 z m 352.925887,-5 c 0,-1.375 0.22698,-1.9375 0.50439,-1.25 0.27741,0.6875 0.27741,1.8125 0,2.5 -0.27741,0.6875 -0.50439,0.125 -0.50439,-1.25 z M 95.657895,281 c 0,-1.375 0.226973,-1.9375 0.504386,-1.25 0.277412,0.6875 0.277412,1.8125 0,2.5 -0.277413,0.6875 -0.504386,0.125 -0.504386,-1.25 z m 350.921055,-2.58333 c 0.048,-1.16495 0.28494,-1.4019 0.60416,-0.60417 0.28887,0.72187 0.25335,1.58438 -0.0789,1.91667 -0.33229,0.33229 -0.56864,-0.25834 -0.52522,-1.3125 z m -1,-6 c 0.048,-1.16495 0.28494,-1.4019 0.60416,-0.60417 0.28887,0.72187 0.25335,1.58438 -0.0789,1.91667 -0.33229,0.33229 -0.56864,-0.25834 -0.52522,-1.3125 z m -1,-5 c 0.048,-1.16495 0.28494,-1.4019 0.60416,-0.60417 0.28887,0.72187 0.25335,1.58438 -0.0789,1.91667 -0.33229,0.33229 -0.56864,-0.25834 -0.52522,-1.3125 z m -1,-4 c 0.048,-1.16495 0.28494,-1.4019 0.60416,-0.60417 0.28887,0.72187 0.25335,1.58438 -0.0789,1.91667 -0.33229,0.33229 -0.56864,-0.25834 -0.52522,-1.3125 z m -1,-4 c 0.048,-1.16495 0.28494,-1.4019 0.60416,-0.60417 0.28887,0.72187 0.25335,1.58438 -0.0789,1.91667 -0.33229,0.33229 -0.56864,-0.25834 -0.52522,-1.3125 z m -3.4951,-24.55234 c 0.31206,-0.50493 4.24586,-2.76333 8.74177,-5.01866 4.49591,-2.25534 11.43688,-6.28743 15.42438,-8.96018 8.26376,-5.53907 9.64719,-5.81553 2.37006,-0.47362 -5.27805,3.87444 -27.46769,15.95962 -26.53621,14.45246 z M 497.25,223.25092 c 12.7875,-0.15828 33.7125,-0.15828 46.5,0 12.7875,0.15828 2.325,0.28778 -23.25,0.28778 -25.575,0 -36.0375,-0.1295 -23.25,-0.28778 z M 72.372445,216.25 c -1.243871,-1.58606 -1.208501,-1.62143 0.377555,-0.37756 0.9625,0.75485 1.75,1.54235 1.75,1.75 0,0.82304 -0.821186,0.29331 -2.127555,-1.37244 z M 11.25,214.25131 c 10.5875,-0.16197 27.9125,-0.16197 38.5,0 10.5875,0.16197 1.925,0.2945 -19.25,0.2945 -21.175,0 -29.8375,-0.13253 -19.25,-0.2945 z M 120.37244,204.25 c -1.24915,-1.59279 -1.21242,-1.62438 0.40882,-0.35162 1.5553,1.221 1.97456,1.15758 3.30516,-0.5 1.44487,-1.79991 1.46736,-1.78167 0.43356,0.35162 -1.31139,2.70613 -2.32183,2.82795 -4.14754,0.5 z M 418.5,203.60699 c 0,-0.21616 0.69837,-0.661 1.55194,-0.98855 0.88992,-0.34149 1.29132,-0.17385 0.94098,0.39301 -0.58726,0.95021 -2.49292,1.40545 -2.49292,0.59554 z m 14.61199,-6.34425 c 8.52601,-5.65593 14.53365,-9.23985 13.38801,-7.98675 -0.99187,1.0849 -19.40231,12.93999 -20.93251,13.47913 -0.86212,0.30375 2.53291,-2.16781 7.5445,-5.49238 z M 106.33604,195.72552 C 93.299835,187.3276 92.333633,186.64953 95.5,188.12082 c 3.085961,1.43393 21,12.93475 21,13.482 0,0.6595 -0.16412,0.5646 -10.16396,-5.8773 z M 415.73206,199.25 c -2.58892,-3.73899 -3.43047,-5.25 -2.92396,-5.25 0.23437,0 1.61731,1.8 3.0732,4 2.95891,4.47122 2.82982,5.55245 -0.14924,1.25 z m -286.61116,-3.5 c 4.61757,-6.39429 15.4865,-19.75 16.07264,-19.75 0.77519,0 -0.99702,2.43609 -6.18358,8.5 -2.82255,3.3 -6.83029,8.3625 -8.9061,11.25 -2.07581,2.8875 -3.9992,5.25 -4.2742,5.25 -0.275,0 1.20606,-2.3625 3.29124,-5.25 z m 275.35034,-11.5 c -3.99529,-4.8125 -5.84922,-7.42923 -4.11984,-5.81496 3.2629,3.04573 12.62119,14.56496 11.83265,14.56496 -0.24675,0 -3.71752,-3.9375 -7.71281,-8.75 z m 44.45813,3.26708 c 2.52089,-1.95973 19.63067,-10.79318 20.05672,-10.35489 0.18061,0.1858 -4.69238,2.92913 -10.82886,6.0963 -6.13648,3.16717 -10.28901,5.08354 -9.22786,4.25859 z M 89.25,185.42803 c -3.738441,-2.02814 -3.510883,-2.87286 0.25,-0.92803 1.65,0.85325 3,1.7648 3,2.02568 0,0.6435 -0.107447,0.60721 -3.25,-1.09765 z m 82.51903,-8.12102 c 0.97297,-0.25354 2.32297,-0.23687 3,0.0371 0.67703,0.27393 -0.11903,0.48137 -1.76903,0.46099 -1.65,-0.0204 -2.20394,-0.2445 -1.23097,-0.49804 z m 16,0 c 0.97297,-0.25354 2.32297,-0.23687 3,0.0371 0.67703,0.27393 -0.11903,0.48137 -1.76903,0.46099 -1.65,-0.0204 -2.20394,-0.2445 -1.23097,-0.49804 z m 164.98097,0.004 c 0.9625,-0.25152 2.5375,-0.25152 3.5,0 0.9625,0.25153 0.175,0.45733 -1.75,0.45733 -1.925,0 -2.7125,-0.2058 -1.75,-0.45733 z m 16.5,0.0271 c 0.6875,-0.27741 1.8125,-0.27741 2.5,0 0.6875,0.27741 0.125,0.50439 -1.25,0.50439 -1.375,0 -1.9375,-0.22698 -1.25,-0.50439 z m -202.9375,-1.02083 c 0.72187,-0.28887 1.58437,-0.25335 1.91667,0.0789 0.33229,0.33229 -0.25834,0.56864 -1.3125,0.52522 -1.16495,-0.048 -1.4019,-0.28494 -0.60417,-0.60416 z m 29,0 c 0.72187,-0.28887 1.58437,-0.25335 1.91667,0.0789 0.33229,0.33229 -0.25834,0.56864 -1.3125,0.52522 -1.16495,-0.048 -1.4019,-0.28494 -0.60417,-0.60416 z m 152,0 c 0.72187,-0.28887 1.58438,-0.25335 1.91667,0.0789 0.33229,0.33229 -0.25834,0.56864 -1.3125,0.52522 -1.16495,-0.048 -1.4019,-0.28494 -0.60417,-0.60416 z m 56.16582,-7.6373 C 407.0414,165.00581 410.11671,162 410.31235,162 c 1.04922,0 -6.30682,8.13083 -9.53716,10.54168 -2.66095,1.98592 -1.86312,0.84602 2.70313,-3.86209 z m -263.77116,0.90632 c -4.48894,-4.20985 -10.39586,-12.80858 -11.73722,-17.0863 -0.34493,-1.1 0.86498,0.7 2.68867,4 1.8237,3.3 5.87307,8.5875 8.9986,11.75 6.71978,6.79925 6.75043,7.61922 0.0499,1.33591 z m 7.66528,-2.33591 c -1.24387,-1.58606 -1.2085,-1.62143 0.37756,-0.37756 1.66575,1.30637 2.19548,2.12756 1.37244,2.12756 -0.20765,0 -0.99515,-0.7875 -1.75,-1.75 z m 176,-1 c -1.24387,-1.58606 -1.2085,-1.62143 0.37756,-0.37756 1.66575,1.30637 2.19548,2.12756 1.37244,2.12756 -0.20765,0 -0.99515,-0.7875 -1.75,-1.75 z m 73.12756,0.4367 c 0,-0.1721 1.4625,-1.6346 3.25,-3.25 L 403,160.5 l -2.93709,3.25 c -2.73778,3.02946 -3.56291,3.70965 -3.56291,2.93709 z M 223.5,162.5 c 1.86578,-1.925 3.61733,-3.5 3.89233,-3.5 0.275,0 -1.02655,1.575 -2.89233,3.5 -1.86578,1.925 -3.61733,3.5 -3.89233,3.5 -0.275,0 1.02655,-1.575 2.89233,-3.5 z m 189.2016,-5.97806 c 1.19659,-2.46293 2.34713,-4.30654 2.55677,-4.09691 0.45238,0.45239 -3.58827,8.57497 -4.2657,8.57497 -0.25667,0 0.51235,-2.01513 1.70893,-4.47806 z M 209,155 c 0.99549,-1.1 2.03498,-2 2.30998,-2 0.275,0 -0.31449,0.9 -1.30998,2 -0.99549,1.1 -2.03498,2 -2.30998,2 -0.275,0 0.31449,-0.9 1.30998,-2 z m 173.5,1.68709 c 0,-0.1721 1.4625,-1.6346 3.25,-3.25 L 389,150.5 l -2.93709,3.25 c -2.73778,3.02946 -3.56291,3.70965 -3.56291,2.93709 z m -255.92105,-8.27042 c 0.048,-1.16495 0.28494,-1.4019 0.60416,-0.60417 0.28887,0.72187 0.25335,1.58437 -0.0789,1.91667 -0.3323,0.33229 -0.56864,-0.25834 -0.52522,-1.3125 z M 124.65789,140 c 0,-1.375 0.22698,-1.9375 0.50439,-1.25 0.27741,0.6875 0.27741,1.8125 0,2.5 -0.27741,0.6875 -0.50439,0.125 -0.50439,-1.25 z m 7,0 c 0,-1.375 0.22698,-1.9375 0.50439,-1.25 0.27741,0.6875 0.27741,1.8125 0,2.5 -0.27741,0.6875 -0.50439,0.125 -0.50439,-1.25 z m 174.92106,-1.58333 c 0.048,-1.16495 0.28494,-1.4019 0.60416,-0.60417 0.28887,0.72187 0.25335,1.58437 -0.0789,1.91667 -0.33229,0.33229 -0.56864,-0.25834 -0.52522,-1.3125 z M 411.732,136 c 0,-1.925 0.2058,-2.7125 0.45733,-1.75 0.25152,0.9625 0.25152,2.5375 0,3.5 -0.25153,0.9625 -0.45733,0.175 -0.45733,-1.75 z m 7,0 c 0,-1.925 0.2058,-2.7125 0.45733,-1.75 0.25152,0.9625 0.25152,2.5375 0,3.5 -0.25153,0.9625 -0.45733,0.175 -0.45733,-1.75 z m -182.15305,0.41667 c 0.048,-1.16495 0.28494,-1.4019 0.60416,-0.60417 0.28887,0.72187 0.25335,1.58437 -0.0789,1.91667 -0.3323,0.33229 -0.56864,-0.25834 -0.52522,-1.3125 z M 393.65789,134 c 0,-1.375 0.22698,-1.9375 0.50439,-1.25 0.27741,0.6875 0.27741,1.8125 0,2.5 -0.27741,0.6875 -0.50439,0.125 -0.50439,-1.25 z m -87.96294,-1.5 c 0.0204,-1.65 0.2445,-2.20394 0.49804,-1.23097 0.25354,0.97297 0.23687,2.32297 -0.0371,3 -0.27393,0.67703 -0.48137,-0.11903 -0.46099,-1.76903 z M 218.65789,132 c 0,-1.375 0.22698,-1.9375 0.50439,-1.25 0.27741,0.6875 0.27741,1.8125 0,2.5 -0.27741,0.6875 -0.50439,0.125 -0.50439,-1.25 z M 499.25,133.25109 c 11.6875,-0.15998 30.8125,-0.15998 42.5,0 11.6875,0.15998 2.125,0.29087 -21.25,0.29087 -23.375,0 -32.9375,-0.13089 -21.25,-0.29087 z M 237.82814,124.5 c 0.004,-3.85 0.18518,-5.30246 0.40166,-3.2277 0.21647,2.07477 0.21284,5.22477 -0.008,7 -0.22091,1.77524 -0.39803,0.0777 -0.39359,-3.7723 z M 393.732,126 c 0,-1.925 0.2058,-2.7125 0.45733,-1.75 0.25152,0.9625 0.25152,2.5375 0,3.5 -0.25153,0.9625 -0.45733,0.175 -0.45733,-1.75 z m 18.02018,-0.5 c 0.0111,-2.2 0.21589,-2.98225 0.45508,-1.73834 0.23919,1.24391 0.23011,3.04391 -0.0202,4 -0.25029,0.95609 -0.446,-0.0617 -0.4349,-2.26166 z m 6.97982,0.5 c 0,-1.925 0.2058,-2.7125 0.45733,-1.75 0.25152,0.9625 0.25152,2.5375 0,3.5 -0.25153,0.9625 -0.45733,0.175 -0.45733,-1.75 z m -294.07411,-5 c 0,-1.375 0.22698,-1.9375 0.50439,-1.25 0.27741,0.6875 0.27741,1.8125 0,2.5 -0.27741,0.6875 -0.50439,0.125 -0.50439,-1.25 z m 7,0 c 0,-1.375 0.22698,-1.9375 0.50439,-1.25 0.27741,0.6875 0.27741,1.8125 0,2.5 -0.27741,0.6875 -0.50439,0.125 -0.50439,-1.25 z m 17.92106,0.41667 c 0.048,-1.16495 0.28494,-1.4019 0.60416,-0.60417 0.28887,0.72187 0.25335,1.58437 -0.0789,1.91667 -0.3323,0.33229 -0.56864,-0.25834 -0.52522,-1.3125 z m 69,-1 c 0.048,-1.16495 0.28494,-1.4019 0.60416,-0.60417 0.28887,0.72187 0.25335,1.58437 -0.0789,1.91667 -0.3323,0.33229 -0.56864,-0.25834 -0.52522,-1.3125 z m 192,-2 c 0.048,-1.16495 0.28494,-1.4019 0.60416,-0.60417 0.28887,0.72187 0.25335,1.58437 -0.0789,1.91667 -0.33229,0.33229 -0.56864,-0.25834 -0.52522,-1.3125 z m 7,0 c 0.048,-1.16495 0.28494,-1.4019 0.60416,-0.60417 0.28887,0.72187 0.25335,1.58437 -0.0789,1.91667 -0.33229,0.33229 -0.56864,-0.25834 -0.52522,-1.3125 z m -292,-3 c 0.048,-1.16495 0.28494,-1.4019 0.60416,-0.60417 0.28887,0.72187 0.25335,1.58437 -0.0789,1.91667 -0.3323,0.33229 -0.56864,-0.25834 -0.52522,-1.3125 z m 180,0 c 0.048,-1.16495 0.28494,-1.4019 0.60416,-0.60417 0.28887,0.72187 0.25335,1.58437 -0.0789,1.91667 -0.33229,0.33229 -0.56864,-0.25834 -0.52522,-1.3125 z m -69,-2 c 0.048,-1.16495 0.28494,-1.4019 0.60416,-0.60417 0.28887,0.72187 0.25335,1.58437 -0.0789,1.91667 -0.3323,0.33229 -0.56864,-0.25834 -0.52522,-1.3125 z M 243.65789,113 c 0,-1.375 0.22698,-1.9375 0.50439,-1.25 0.27741,0.6875 0.27741,1.8125 0,2.5 -0.27741,0.6875 -0.50439,0.125 -0.50439,-1.25 z m 3.65461,1.31689 c 0.72187,-0.28887 1.58438,-0.25335 1.91667,0.0789 0.33229,0.3323 -0.25834,0.56864 -1.3125,0.52522 -1.16495,-0.048 -1.4019,-0.28494 -0.60417,-0.60416 z m 48,0 c 0.72187,-0.28887 1.58438,-0.25335 1.91667,0.0789 0.33229,0.3323 -0.25834,0.56864 -1.3125,0.52522 -1.16495,-0.048 -1.4019,-0.28494 -0.60417,-0.60416 z m 114.26645,-0.90022 c 0.048,-1.16495 0.28494,-1.4019 0.60416,-0.60417 0.28887,0.72187 0.25335,1.58437 -0.0789,1.91667 -0.33229,0.33229 -0.56864,-0.25834 -0.52522,-1.3125 z m 7,0 c 0.048,-1.16495 0.28494,-1.4019 0.60416,-0.60417 0.28887,0.72187 0.25335,1.58437 -0.0789,1.91667 -0.33229,0.33229 -0.56864,-0.25834 -0.52522,-1.3125 z m -165.26645,-0.0998 c 0.72187,-0.28887 1.58438,-0.25335 1.91667,0.0789 0.33229,0.3323 -0.25834,0.56864 -1.3125,0.52522 -1.16495,-0.048 -1.4019,-0.28494 -0.60417,-0.60416 z m 40,0 c 0.72187,-0.28887 1.58438,-0.25335 1.91667,0.0789 0.33229,0.3323 -0.25834,0.56864 -1.3125,0.52522 -1.16495,-0.048 -1.4019,-0.28494 -0.60417,-0.60416 z m 8.26645,-2.90022 c 0.048,-1.16495 0.28494,-1.4019 0.60416,-0.60417 0.28887,0.72187 0.25335,1.58437 -0.0789,1.91667 -0.33229,0.33229 -0.56864,-0.25834 -0.52522,-1.3125 z m 7,0 c 0.048,-1.16495 0.28494,-1.4019 0.60416,-0.60417 0.28887,0.72187 0.25335,1.58437 -0.0789,1.91667 -0.33229,0.33229 -0.56864,-0.25834 -0.52522,-1.3125 z m -36.39044,-0.11434 c 1.26305,-0.24546 2.36836,-1.35077 2.61382,-2.61382 0.35012,-1.80163 0.44938,-1.70238 0.56149,0.56149 0.11866,2.39625 -0.21757,2.73248 -2.61382,2.61382 -2.26387,-0.11211 -2.36312,-0.21137 -0.56149,-0.56149 z M 414.7,107.3 c -1.47979,-4.8216 -0.76361,-5.53778 0.8,-0.8 0.65963,1.9987 1.00486,3.82847 0.76718,4.06615 -0.23768,0.23768 -0.94291,-1.23209 -1.56718,-3.26615 z m -172.12105,1.11667 c 0.048,-1.16495 0.28494,-1.4019 0.60416,-0.60417 0.28887,0.72187 0.25335,1.58437 -0.0789,1.91667 -0.3323,0.33229 -0.56864,-0.25834 -0.52522,-1.3125 z M 265.75218,103.5 c 0.0111,-2.2 0.21589,-2.98225 0.45508,-1.73834 0.23919,1.24391 0.23011,3.04391 -0.0202,4 -0.25029,0.95609 -0.446,-0.0617 -0.4349,-2.26166 z m -137.22155,2 c 0,-0.55 0.43621,-1.675 0.96937,-2.5 0.53316,-0.825 0.96937,-1.05 0.96937,-0.5 0,0.55 -0.43621,1.675 -0.96937,2.5 -0.53316,0.825 -0.96937,1.05 -0.96937,0.5 z M 282.65789,102 c 0,-1.375 0.22698,-1.9375 0.50439,-1.25 0.27741,0.6875 0.27741,1.8125 0,2.5 -0.27741,0.6875 -0.50439,0.125 -0.50439,-1.25 z m -42.53435,-0.53866 c -0.96498,-2.514693 -0.68031,-3.163554 0.49853,-1.13634 0.58369,1.00375 0.8506,2.03566 0.59313,2.29313 -0.25747,0.25747 -0.74872,-0.26309 -1.09166,-1.15679 z M 309.5,102.05902 c 0,-0.51754 0.44485,-1.21592 0.98855,-1.55194 0.56686,-0.35034 0.7345,0.0511 0.39301,0.94098 -0.66479,1.73242 -1.38156,2.04939 -1.38156,0.61096 z M 210.37244,100.25 c -1.24387,-1.586056 -1.2085,-1.621426 0.37756,-0.377555 1.66575,1.306365 2.19548,2.127555 1.37244,2.127555 -0.20765,0 -0.99515,-0.7875 -1.75,-1.75 z M 273.65789,100 c 0,-1.375 0.22698,-1.9375 0.50439,-1.25 0.27741,0.6875 0.27741,1.8125 0,2.5 -0.27741,0.6875 -0.50439,0.125 -0.50439,-1.25 z M 302.5,101.62683 C 302.5,100.54685 306.47221,93 307.04065,93 c 0.275,0 -0.46446,1.9125 -1.64325,4.25 -2.31816,4.59686 -2.8974,5.47186 -2.8974,4.37683 z m -145,-0.93974 c 0,-0.1721 1.4625,-1.634599 3.25,-3.249999 L 164,94.5 l -2.93709,3.25 c -2.73778,3.02946 -3.56291,3.70965 -3.56291,2.93709 z M 255.69495,96.5 c 0.0204,-1.65 0.2445,-2.203936 0.49804,-1.230968 0.25354,0.972967 0.23687,2.322967 -0.0371,3 C 255.88201,98.946064 255.67457,98.15 255.69495,96.5 Z m -18.30446,-0.75 c -0.64893,-1.2375 -2.55245,-4.05 -4.23003,-6.25 -2.60465,-3.415766 -2.68321,-3.670959 -0.53787,-1.747198 C 235.06672,89.944493 240.15808,98 239.09917,98 c -0.29084,0 -1.05975,-1.0125 -1.70868,-2.25 z m 172.56839,1.183469 c -0.36253,-0.586592 -0.44468,-1.281 -0.18255,-1.543128 0.26212,-0.262129 0.74306,0.21781 1.06875,1.066531 0.67618,1.762107 0.0999,2.072058 -0.8862,0.476597 z M 134.19346,93.923116 c 0.9936,-1.692286 2.44556,-3.604786 3.22658,-4.25 0.78103,-0.645214 0.15873,0.739384 -1.38288,3.076884 -3.23702,4.908188 -4.51358,5.720446 -1.8437,1.173116 z m 149.38549,1.493551 c 0.048,-1.164943 0.28494,-1.4019 0.60416,-0.604167 0.28887,0.721875 0.25335,1.584375 -0.0789,1.916667 -0.33229,0.332291 -0.56864,-0.258334 -0.52522,-1.3125 z M 400.37244,94.25 c -1.24387,-1.586056 -1.2085,-1.621426 0.37756,-0.377555 0.9625,0.754844 1.75,1.542344 1.75,1.75 0,0.823034 -0.82119,0.293303 -2.12756,-1.372445 z m -173,-1 c -1.24387,-1.586056 -1.2085,-1.621426 0.37756,-0.377555 0.9625,0.754844 1.75,1.542344 1.75,1.75 0,0.823034 -0.82119,0.293303 -2.12756,-1.372445 z M 264.65789,93 c 0,-1.375 0.22698,-1.9375 0.50439,-1.25 0.27741,0.6875 0.27741,1.8125 0,2.5 -0.27741,0.6875 -0.50439,0.125 -0.50439,-1.25 z m 9.92106,0.416667 c 0.048,-1.164943 0.28494,-1.4019 0.60416,-0.604167 0.28887,0.721875 0.25335,1.584375 -0.0789,1.916667 -0.33229,0.332291 -0.56864,-0.258334 -0.52522,-1.3125 z M 146,90 c 2.14824,-2.2 4.1309,-4 4.4059,-4 0.275,0 -1.25766,1.8 -3.4059,4 -2.14824,2.2 -4.1309,4 -4.4059,4 -0.275,0 1.25766,-1.8 3.4059,-4 z m 259.35319,-0.25 c -1.82317,-2.3375 -2.51498,-3.614966 -1.53734,-2.838814 C 405.75654,88.451922 409.93299,94 409.15212,94 c -0.26623,0 -1.97575,-1.9125 -3.79893,-4.25 z M 318.5,89.5 c 1.86578,-1.925 3.61733,-3.5 3.89233,-3.5 0.275,0 -1.02655,1.575 -2.89233,3.5 -1.86578,1.925 -3.61733,3.5 -3.89233,3.5 -0.275,0 1.02655,-1.575 2.89233,-3.5 z m -8.25184,-1 c 1.66732,-2.2 3.98107,-4.857244 5.14167,-5.904988 3.84892,-3.474664 2.18585,-1.014005 -3.0315,4.485378 -3.93101,4.143505 -4.42787,4.477768 -2.11017,1.41961 z m -25.66921,0.916667 c 0.048,-1.164943 0.28494,-1.4019 0.60416,-0.604167 0.28887,0.721875 0.25335,1.584375 -0.0789,1.916667 -0.33229,0.332291 -0.56864,-0.258334 -0.52522,-1.3125 z M 178.3125,89.316886 c 0.72187,-0.288871 1.58437,-0.253344 1.91667,0.07895 0.33229,0.332292 -0.25834,0.568641 -1.3125,0.52522 -1.16495,-0.04798 -1.4019,-0.284941 -0.60417,-0.604167 z m 12,0 c 0.72187,-0.288871 1.58437,-0.253344 1.91667,0.07895 0.33229,0.332292 -0.25834,0.568641 -1.3125,0.52522 -1.16495,-0.04798 -1.4019,-0.284941 -0.60417,-0.604167 z m 64.26645,-0.900219 c 0.048,-1.164943 0.28494,-1.4019 0.60416,-0.604167 0.28887,0.721875 0.25335,1.584375 -0.0789,1.916667 -0.33229,0.332291 -0.56864,-0.258334 -0.52522,-1.3125 z m 21,0 c 0.048,-1.164943 0.28494,-1.4019 0.60416,-0.604167 0.28887,0.721875 0.25335,1.584375 -0.0789,1.916667 -0.33229,0.332291 -0.56864,-0.258334 -0.52522,-1.3125 z m 76.73355,0.900219 c 0.72187,-0.288871 1.58438,-0.253344 1.91667,0.07895 0.33229,0.332292 -0.25834,0.568641 -1.3125,0.52522 -1.16495,-0.04798 -1.4019,-0.284941 -0.60417,-0.604167 z m 12,0 c 0.72187,-0.288871 1.58438,-0.253344 1.91667,0.07895 0.33229,0.332292 -0.25834,0.568641 -1.3125,0.52522 -1.16495,-0.04798 -1.4019,-0.284941 -0.60417,-0.604167 z M 142.95154,83.365417 C 147.79759,78.907295 157.01534,72.98449 159,73.05358 c 0.55,0.01915 -0.8,0.979031 -3,2.133077 -4.8242,2.530611 -15.5,10.768791 -15.5,11.96086 0,0.468865 -0.5625,0.834616 -1.25,0.812778 -0.6875,-0.02184 0.97819,-2.089533 3.70154,-4.594878 z m 120.62741,3.05125 c 0.048,-1.164943 0.28494,-1.4019 0.60416,-0.604167 0.28887,0.721875 0.25335,1.584375 -0.0789,1.916667 -0.33229,0.332291 -0.56864,-0.258334 -0.52522,-1.3125 z M 391.37244,85.25 C 390.12857,83.663944 390.16394,83.628574 391.75,84.872445 393.41575,86.178814 393.94548,87 393.12244,87 c -0.20765,0 -0.99515,-0.7875 -1.75,-1.75 z M 225,81.3507 c -3.01149,-2.690922 -3.23667,-3.06387 -0.91119,-1.509133 2.76441,1.848186 6.24067,5.217366 5.28363,5.120886 C 229.1676,84.941803 227.2,83.316514 225,81.3507 Z m 171.38533,-0.165046 c -2.53807,-2.02711 -5.46307,-4.264786 -6.5,-4.972614 -1.03693,-0.707828 0.0168,-0.293313 2.34155,0.921144 2.32478,1.214458 5.44647,3.48109 6.93709,5.03696 3.60074,3.758365 2.80969,3.477806 -2.77864,-0.98549 z M 262.57895,80.416667 c 0.048,-1.164943 0.28494,-1.4019 0.60416,-0.604167 0.28887,0.721875 0.25335,1.584375 -0.0789,1.916667 -0.33229,0.332291 -0.56864,-0.258334 -0.52522,-1.3125 z m 56.267,-0.167403 C 319.57347,79.072109 327.91535,74 329.12385,74 c 0.42224,0 -1.23289,1.261275 -3.67807,2.802833 -7.18292,4.528457 -7.30937,4.594491 -6.59983,3.446431 z M 214.5,75 c -3.025,-1.598105 -5.14754,-2.926875 -4.71676,-2.952822 1.06275,-0.06401 10.71676,4.863243 10.71676,5.469668 0,0.668042 0.1387,0.726223 -6,-2.516846 z m -43.1875,1.316886 c 0.72187,-0.288871 1.58437,-0.253344 1.91667,0.07895 0.33229,0.332292 -0.25834,0.568641 -1.3125,0.52522 -1.16495,-0.04798 -1.4019,-0.284941 -0.60417,-0.604167 z m 5.45653,-1.009877 c 0.97297,-0.253543 2.32297,-0.236869 3,0.03705 0.67703,0.273923 -0.11903,0.481368 -1.76903,0.460988 -1.65,-0.02038 -2.20394,-0.244498 -1.23097,-0.498042 z m 13.98097,0.0037 c 0.9625,-0.251527 2.5375,-0.251527 3.5,0 0.9625,0.251528 0.175,0.457323 -1.75,0.457323 -1.925,0 -2.7125,-0.205795 -1.75,-0.457323 z m 159.01903,-0.0037 c 0.97297,-0.253543 2.32297,-0.236869 3,0.03705 0.67703,0.273923 -0.11903,0.481368 -1.76903,0.460988 -1.65,-0.02038 -2.20394,-0.244498 -1.23097,-0.498042 z m 14,0 c 0.97297,-0.253543 2.32297,-0.236869 3,0.03705 0.67703,0.273923 -0.11903,0.481368 -1.76903,0.460988 -1.65,-0.02038 -2.20394,-0.244498 -1.23097,-0.498042 z M 382.5,73 c -0.825,-0.533156 -1.05,-0.969374 -0.5,-0.969374 0.55,0 1.675,0.436218 2.5,0.969374 0.825,0.533156 1.05,0.969374 0.5,0.969374 -0.55,0 -1.675,-0.436218 -2.5,-0.969374 z m -221,-1 c 0.825,-0.533156 1.95,-0.969374 2.5,-0.969374 0.55,0 0.325,0.436218 -0.5,0.969374 -0.825,0.533156 -1.95,0.969374 -2.5,0.969374 -0.55,0 -0.325,-0.436218 0.5,-0.969374 z m 4.8125,-1.683114 c 0.72187,-0.288871 1.58437,-0.253344 1.91667,0.07895 0.33229,0.332292 -0.25834,0.568641 -1.3125,0.52522 -1.16495,-0.04798 -1.4019,-0.284941 -0.60417,-0.604167 z m 37,0 c 0.72187,-0.288871 1.58437,-0.253344 1.91667,0.07895 0.33229,0.332292 -0.25834,0.568641 -1.3125,0.52522 -1.16495,-0.04798 -1.4019,-0.284941 -0.60417,-0.604167 z m -33,-1 c 0.72187,-0.288871 1.58437,-0.253344 1.91667,0.07895 0.33229,0.332292 -0.25834,0.568641 -1.3125,0.52522 -1.16495,-0.04798 -1.4019,-0.284941 -0.60417,-0.604167 z m 29,0 c 0.72187,-0.288871 1.58437,-0.253344 1.91667,0.07895 0.33229,0.332292 -0.25834,0.568641 -1.3125,0.52522 -1.16495,-0.04798 -1.4019,-0.284941 -0.60417,-0.604167 z m 144,0 c 0.72187,-0.288871 1.58438,-0.253344 1.91667,0.07895 0.33229,0.332292 -0.25834,0.568641 -1.3125,0.52522 -1.16495,-0.04798 -1.4019,-0.284941 -0.60417,-0.604167 z m 28,0 c 0.72187,-0.288871 1.58438,-0.253344 1.91667,0.07895 0.33229,0.332292 -0.25834,0.568641 -1.3125,0.52522 -1.16495,-0.04798 -1.4019,-0.284941 -0.60417,-0.604167 z M 176.76903,68.307009 c 0.97297,-0.253543 2.32297,-0.236869 3,0.03705 0.67703,0.273923 -0.11903,0.481368 -1.76903,0.460988 -1.65,-0.02038 -2.20394,-0.244498 -1.23097,-0.498042 z m 15,0 c 0.97297,-0.253543 2.32297,-0.236869 3,0.03705 0.67703,0.273923 -0.11903,0.481368 -1.76903,0.460988 -1.65,-0.02038 -2.20394,-0.244498 -1.23097,-0.498042 z M 349.25,68.337719 c 0.6875,-0.277412 1.8125,-0.277412 2.5,0 0.6875,0.277413 0.125,0.504386 -1.25,0.504386 -1.375,0 -1.9375,-0.226973 -1.25,-0.504386 z m 15,0 c 0.6875,-0.277412 1.8125,-0.277412 2.5,0 0.6875,0.277413 0.125,0.504386 -1.25,0.504386 -1.375,0 -1.9375,-0.226973 -1.25,-0.504386 z m -38,-27 c 0.6875,-0.277412 1.8125,-0.277412 2.5,0 0.6875,0.277413 0.125,0.504386 -1.25,0.504386 -1.375,0 -1.9375,-0.226973 -1.25,-0.504386 z m 7.0625,-0.02083 c 0.72187,-0.288871 1.58438,-0.253344 1.91667,0.07895 0.33229,0.332292 -0.25834,0.568641 -1.3125,0.52522 -1.16495,-0.04798 -1.4019,-0.284941 -0.60417,-0.604167 z M 305.5,40.622445 c 0,-0.207656 0.7875,-0.995156 1.75,-1.75 1.58606,-1.243871 1.62143,-1.208501 0.37756,0.377555 C 306.32119,40.915748 305.5,41.445479 305.5,40.622445 Z M 346.5,34.5 c 1.29175,-1.375 2.57363,-2.5 2.84863,-2.5 0.275,0 -0.55688,1.125 -1.84863,2.5 -1.29175,1.375 -2.57363,2.5 -2.84863,2.5 -0.275,0 0.55688,-1.125 1.84863,-2.5 z M 301,31 c 0.99549,-1.1 2.03498,-2 2.30998,-2 0.275,0 -0.31449,0.9 -1.30998,2 -0.99549,1.1 -2.03498,2 -2.30998,2 -0.275,0 0.31449,-0.9 1.30998,-2 z M 226.90499,24.75 225,22.5 l 2.25,1.904988 C 229.36444,26.195206 229.95524,27 229.15499,27 c -0.18976,0 -1.20226,-1.0125 -2.25,-2.25 z M 308.5,23.5 c 1.29175,-1.375 2.57363,-2.5 2.84863,-2.5 0.275,0 -0.55688,1.125 -1.84863,2.5 -1.29175,1.375 -2.57363,2.5 -2.84863,2.5 -0.275,0 0.55688,-1.125 1.84863,-2.5 z M 238.37244,23.25 C 237.12857,21.663944 237.16394,21.628574 238.75,22.872445 240.41575,24.178814 240.94548,25 240.12244,25 c -0.20765,0 -0.99515,-0.7875 -1.75,-1.75 z M 184.57895,11.416667 c 0.048,-1.164943 0.28494,-1.4019 0.60416,-0.604167 0.28887,0.721875 0.25335,1.584375 -0.0789,1.916667 -0.3323,0.332291 -0.56864,-0.258334 -0.52522,-1.3125 z M 333.3125,10.316886 c 0.72187,-0.288871 1.58438,-0.253344 1.91667,0.07895 0.33229,0.332292 -0.25834,0.568641 -1.3125,0.52522 -1.16495,-0.04798 -1.4019,-0.284941 -0.60417,-0.604167 z M 198.25,0.29426699 c 1.2375,-0.23835289 3.2625,-0.23835289 4.5,0 1.2375,0.2383529 0.225,0.4333689 -2.25,0.4333689 -2.475,0 -3.4875,-0.195016 -2.25,-0.4333689 z"
       id="path35" /><path
       style="fill:#e14f25"
       d="m 112.9208,311.69119 c 8.0022,-4.96261 14.09849,-14.1247 17.09444,-25.69119 2.36884,-9.14538 1.68943,-23.59504 -1.44474,-30.72705 -2.73228,-6.21745 -9.21989,-12.52637 -14.65464,-14.251 -4.43871,-1.40855 -6.84701,-3.79748 -5.48401,-5.43991 0.49387,-0.59512 1.89747,-4.00704 3.11911,-7.58204 1.22163,-3.575 3.82907,-9.875 5.79429,-14 1.96522,-4.125 3.48439,-7.82131 3.37594,-8.21401 -0.10846,-0.39271 0.43789,-0.47031 1.21411,-0.17244 0.82653,0.31717 1.92511,-0.42287 2.6513,-1.78599 1.82754,-3.43045 8.56179,-12.38857 15.13607,-20.13452 3.17753,-3.74383 5.77733,-7.50009 5.77733,-8.34724 0,-0.84715 -2.1375,-3.47211 -4.75,-5.83324 -15.7641,-14.24732 -20.43653,-39.83683 -11.59211,-63.48658 6.93674,-18.548657 21.4872,-31.254798 41.34211,-36.101866 7.66152,-1.870362 24.03373,-1.614681 31.92004,0.498488 20.98712,5.623588 36.36303,20.452177 40.26051,38.827398 1.42334,6.71055 1.47433,6.72545 12.75182,3.72646 9.82127,-2.61173 23.04897,-2.60232 33.06763,0.0235 10.68705,2.80104 10.42537,2.88744 12.36304,-4.08199 6.25167,-22.486018 23.34602,-36.424027 49.08928,-40.02533 17.44741,-2.44077 36.9301,3.349067 50.04768,14.873094 10.99702,9.661077 18.55578,28.581206 18.69085,46.784556 0.11429,15.40251 -4.80758,27.7784 -15.09251,37.94967 -3.33688,3.3 -6.07409,6.34792 -6.0827,6.77315 -0.009,0.42524 3.24898,4.70024 7.23908,9.5 11.40324,13.71719 21.20973,29.63386 26.32464,42.72685 1.50404,3.85 3.20606,7.60707 3.78227,8.34904 1.3442,1.7309 4.98073,13.02114 8.10549,25.1649 3.7809,14.69372 5.52446,27.38239 5.52886,40.23606 L 448.5,313 H 306.43544 164.37088 l -2.41519,-2.87029 c -3.79246,-4.50709 -7.56149,-5.64808 -13.9411,-4.22039 -2.95179,0.66058 -7.19622,2.52622 -9.43208,4.14587 -3.96595,2.87292 -4.35226,2.94337 -15.82385,2.886 -9.52239,-0.0476 -11.39336,-0.28535 -9.83786,-1.25 z m 306.2996,-14.42583 c 6.7889,-3.52312 9.03567,-11.8022 5.38449,-19.84122 -3.02349,-6.65701 -12.04002,-9.23626 -22.31356,-6.38297 -10.02027,2.78295 -14.17155,15.79362 -7.49676,23.49584 4.76182,5.49478 16.55638,6.81223 24.42583,2.72835 z M 286.76762,217.73502 c 11.77719,-5.39178 19.90885,-17.89067 19.90885,-30.60118 0,-11.77013 -3.99773,-16.13384 -14.78071,-16.13384 -4.65958,0 -6.84914,0.64064 -11.96214,3.5 -3.44223,1.925 -7.12764,3.5 -8.18982,3.5 -1.06218,0 -4.63884,-1.81811 -7.94814,-4.04025 -7.36172,-4.94327 -11.76352,-5.81659 -17.76503,-3.5246 -6.85151,2.61662 -9.04158,6.89671 -8.98771,17.56485 0.0498,9.86847 2.02432,15.30146 7.94104,21.85057 7.5801,8.39026 15.0698,11.31184 27.6357,10.78013 6.54627,-0.277 9.94944,-0.97354 14.14796,-2.89568 z M 212.25,209.2079 c 0.6875,-0.87459 1.25,-2.42208 1.25,-3.43887 0,-2.52571 -3.33196,-8.85734 -5.86807,-11.15092 -1.82629,-1.65165 -2.45683,-1.72617 -5.15357,-0.60915 -3.1711,1.31352 -5.97836,5.44879 -5.97836,8.80652 0,6.68938 11.76346,11.46378 15.75,6.39242 z M 197,176.4956 c 19.66765,-4.12927 33.53103,-16.37003 38.85213,-34.30472 C 246.63453,105.849 223.5286,75.029562 185.5,75.029562 c -26.91868,0 -46.8774,15.070025 -52.59177,39.709928 -1.83092,7.89475 -2.02187,23.26791 -0.36542,29.41948 4.14728,15.40182 16.99822,27.93837 33.06952,32.26048 7.03471,1.89187 22.56004,1.92954 31.38767,0.0761 z m 178.70078,0.39932 c 21.969,-4.58135 36.79922,-23.13549 36.79922,-46.03964 0,-21.04015 -9.89569,-39.927396 -25.6385,-48.934519 -15.63478,-8.945319 -41.12722,-9.035564 -57.68602,-0.204213 -10.49162,5.595523 -19.96801,17.913936 -22.61559,29.398112 -1.48391,6.43667 -1.24921,21.45697 0.44775,28.6545 4.34745,18.43932 17.8281,31.40996 37.7256,36.29833 8.36595,2.05532 23.18116,2.45117 30.96754,0.82743 z M 96.79134,231.06045 C 89.799573,227.75365 75.315728,218.68782 73.468506,216.46205 72.416881,215.19492 73.671304,215 82.877555,215 88.7199,215 93.5,214.72934 93.5,214.39853 93.5,213.81785 86.419201,200.24852 78.289602,185.25 76.12827,181.2625 74.739283,178 75.202962,178 c 1.403453,0 21.613116,11.49308 32.459908,18.4597 5.60066,3.59717 9.66022,6.5403 9.02124,6.5403 -2.12612,0 -10.78685,19.26178 -13.37589,29.74844 -0.21619,0.87568 -2.16196,0.3717 -6.51688,-1.68799 z m 342.68548,-0.62141 c -2.43021,-6.39195 -5.72066,-13.48392 -9.19934,-19.82753 -2.07761,-3.78867 -3.77423,-7.16367 -3.77026,-7.5 C 426.53045,201.1458 467.96842,177 471.31868,177 c 0.79948,0 1.21798,5.56816 1.40925,18.75 L 473,214.5 l -8.58331,5.65348 C 456.85106,225.13667 442.51786,233 441.00021,233 c -0.30234,0 -0.98787,-1.15243 -1.52339,-2.56096 z"
       id="path34" /><path
       style="fill:#c84123"
       d="m 94.96129,306.48312 c -1.349882,-12.605 2.62153,-37.35231 9.60293,-59.83932 2.50062,-8.05448 3.27713,-9.58275 4.24788,-8.36034 0.65335,0.82272 2.95004,2.05504 5.10376,2.73849 5.43475,1.72463 11.92236,8.03355 14.65464,14.251 3.12722,7.11617 3.81437,21.59121 1.45528,30.65565 -3.02061,11.60621 -8.40152,20.07405 -15.673,24.66434 C 111.20768,312.57835 109.23642,313 103.09947,313 H 95.659188 Z M 138,310.44795 C 140.96066,308.00034 149.08239,305 152.74724,305 c 3.27801,0 10.75276,4.9872 10.75276,7.17431 0,0.45413 -6.4125,0.80951 -14.25,0.78973 l -14.25,-0.036 z m 263,-11.8912 c -13.20284,-4.86801 -12.31735,-23.73602 1.29133,-27.51558 5.52589,-1.53471 12.95122,-1.25717 16.9344,0.63297 6.42656,3.0496 9.17463,13.31364 5.43264,20.29097 -3.45842,6.44862 -15.18501,9.71585 -23.65837,6.59164 z M 106.5,235.60699 c 0,-0.21616 0.69837,-0.661 1.55194,-0.98855 0.88992,-0.34149 1.29132,-0.17385 0.94098,0.39301 -0.58726,0.95021 -2.49292,1.40545 -2.49292,0.59554 z m 332.10039,-1.31151 c 0.72815,-1.21249 1.53915,-1.98927 1.80223,-1.72619 0.26308,0.26308 -0.33267,1.25511 -1.3239,2.20452 -1.72194,1.64929 -1.74325,1.62798 -0.47833,-0.47833 z m -5.5361,-17.00235 c -0.54268,-1.4252 -0.42782,-1.54006 0.5598,-0.5598 0.68342,0.67834 0.99067,1.48524 0.68278,1.79313 -0.30789,0.30789 -0.86705,-0.24711 -1.24258,-1.23333 z M 424.5,214 c -0.5887,-1.1 -0.84537,-2 -0.57037,-2 0.275,0 0.98167,0.9 1.57037,2 0.5887,1.1 0.84537,2 0.57037,2 -0.275,0 -0.98167,-0.9 -1.57037,-2 z m 48.41858,-19 c 0,-10.725 0.14711,-15.1125 0.32692,-9.75 0.17981,5.3625 0.17981,14.1375 0,19.5 -0.17981,5.3625 -0.32692,0.975 -0.32692,-9.75 z M 296,211 c 0.99549,-1.1 2.03498,-2 2.30998,-2 0.275,0 -0.31449,0.9 -1.30998,2 -0.99549,1.1 -2.03498,2 -2.30998,2 -0.275,0 0.31449,-0.9 1.30998,-2 z m -92.18709,-0.11284 c -3.56552,-1.02 -7.31291,-5.15621 -7.31291,-8.07168 0,-3.35773 2.80726,-7.493 5.97836,-8.80652 2.69674,-1.11702 3.32728,-1.0425 5.15357,0.60915 2.53611,2.29358 5.86807,8.62521 5.86807,11.15092 0,4.37558 -4.31445,6.6551 -9.68709,5.11813 z M 302.37244,174.25 c -1.24387,-1.58606 -1.2085,-1.62143 0.37756,-0.37756 1.66575,1.30637 2.19548,2.12756 1.37244,2.12756 -0.20765,0 -0.99515,-0.7875 -1.75,-1.75 z M 258.25,111.33772 c 0.6875,-0.27741 1.8125,-0.27741 2.5,0 0.6875,0.27741 0.125,0.50439 -1.25,0.50439 -1.375,0 -1.9375,-0.22698 -1.25,-0.50439 z m 6.0625,-1.02083 c 0.72187,-0.28887 1.58438,-0.25335 1.91667,0.0789 0.33229,0.3323 -0.25834,0.56864 -1.3125,0.52522 -1.16495,-0.048 -1.4019,-0.28494 -0.60417,-0.60416 z m 10.4375,-0.006 c 0.9625,-0.25152 2.5375,-0.25152 3.5,0 0.9625,0.25153 0.175,0.45733 -1.75,0.45733 -1.925,0 -2.7125,-0.2058 -1.75,-0.45733 z M 309.5,35.5 c 1.86578,-1.925 3.61733,-3.5 3.89233,-3.5 0.275,0 -1.02655,1.575 -2.89233,3.5 -1.86578,1.925 -3.61733,3.5 -3.89233,3.5 -0.275,0 1.02655,-1.575 2.89233,-3.5 z m 7.87244,0.75 C 316.12857,34.663944 316.16394,34.628574 317.75,35.872445 319.41575,37.178814 319.94548,38 319.12244,38 c -0.20765,0 -0.99515,-0.7875 -1.75,-1.75 z M 346,34 c 2.14824,-2.2 4.1309,-4 4.4059,-4 0.275,0 -1.25766,1.8 -3.4059,4 -2.14824,2.2 -4.1309,4 -4.4059,4 -0.275,0 1.25766,-1.8 3.4059,-4 z m -47,0 c 0.99549,-1.1 2.03498,-2 2.30998,-2 0.275,0 -0.31449,0.9 -1.30998,2 -0.99549,1.1 -2.03498,2 -2.30998,2 -0.275,0 0.31449,-0.9 1.30998,-2 z M 234.37244,33.25 C 233.12857,31.663944 233.16394,31.628574 234.75,32.872445 236.41575,34.178814 236.94548,35 236.12244,35 c -0.20765,0 -0.99515,-0.7875 -1.75,-1.75 z M 230.90499,28.75 229,26.5 l 2.25,1.904988 C 233.36444,30.195206 233.95524,31 233.15499,31 c -0.18976,0 -1.20226,-1.0125 -2.25,-2.25 z M 303.5,28.622445 c 0,-0.207656 0.7875,-0.995156 1.75,-1.75 1.58606,-1.243871 1.62143,-1.208501 0.37756,0.377555 -1.30637,1.665748 -2.12756,2.195479 -2.12756,1.372445 z m -84,-1 c 0,-0.207656 0.7875,-0.995156 1.75,-1.75 1.58606,-1.243871 1.62143,-1.208501 0.37756,0.377555 C 220.32119,27.915748 219.5,28.445479 219.5,27.622445 Z M 191.42431,24.25 189,21.5 l 2.75,2.424314 C 194.32029,26.190201 194.95859,27 194.17431,27 c -0.17912,0 -1.41662,-1.2375 -2.75,-2.75 z m 47.94813,1 c -1.24387,-1.586056 -1.2085,-1.621426 0.37756,-0.377555 0.9625,0.754844 1.75,1.542344 1.75,1.75 0,0.823034 -0.82119,0.293303 -2.12756,-1.372445 z M 311,22 c 0.99549,-1.1 2.03498,-2 2.30998,-2 0.275,0 -0.31449,0.9 -1.30998,2 -0.99549,1.1 -2.03498,2 -2.30998,2 -0.275,0 0.31449,-0.9 1.30998,-2 z m -78.5,-4.5 c -2.42903,-2.475 -4.19142,-4.5 -3.91642,-4.5 0.275,0 2.48739,2.025 4.91642,4.5 2.42903,2.475 4.19142,4.5 3.91642,4.5 -0.275,0 -2.48739,-2.025 -4.91642,-4.5 z m -7.12756,-6.25 C 224.12857,9.6639444 224.16394,9.6285741 225.75,10.872445 227.41575,12.178814 227.94548,13 227.12244,13 c -0.20765,0 -0.99515,-0.7875 -1.75,-1.75 z M 186.5,6.6224447 c 0,-0.2076554 0.7875,-0.9951554 1.75,-1.75 C 189.83606,3.6285741 189.87143,3.6639444 188.62756,5.25 187.32119,6.915748 186.5,7.4454789 186.5,6.6224447 Z"
       id="path33" /><path
       style="fill:#0024ca"
       d="M -2.1442315,202.75 C 0.86131172,197.1125 11.720572,176.525 21.987457,157 32.254343,137.475 40.994603,121.14765 41.410257,120.717 42.039851,120.0647 90.5,210.57254 90.5,212.40072 90.5,212.73033 68.425508,213 41.445572,213 H -7.6088555 Z"
       id="path32" /><path
       style="fill:#9d2820"
       d="m 431.69908,227.75 c -1.72957,-4.5375 -5.12446,-11.61739 -7.54422,-15.7331 -3.91431,-6.65775 -4.22219,-7.61279 -2.79142,-8.65899 2.7002,-1.97444 4.6694,0.0887 9.89995,10.37216 7.10707,13.97281 8.81553,18.86745 7.2458,20.75886 -2.34448,2.82492 -3.66136,1.5218 -6.81011,-6.73893 z m -327.64152,6.34313 c -1.39013,-2.24927 9.42505,-28.72828 12.5135,-30.63705 0.61648,-0.381 1.79542,-0.0182 2.61987,0.80628 1.33201,1.33201 1.09225,2.34468 -2.15212,9.09 -2.00811,4.17505 -4.67771,10.64124 -5.93244,14.36932 -1.7359,5.15777 -2.77577,6.85176 -4.34948,7.08551 -1.13749,0.16895 -2.35219,-0.15238 -2.69933,-0.71406 z M 566.9613,177 c 0,-25.575 0.1295,-36.0375 0.28778,-23.25 0.15828,12.7875 0.15828,33.7125 0,46.5 -0.15828,12.7875 -0.28778,2.325 -0.28778,-23.25 z m -298.69339,43.27527 c 1.79735,-0.22256 4.49735,-0.21797 6,0.0102 1.50265,0.22818 0.0321,0.41027 -3.26791,0.40466 -3.3,-0.006 -4.52944,-0.1923 -2.73209,-0.41486 z m 251.47148,-0.0196 43.73938,-0.27664 0.27674,-42.98967 0.27673,-42.98967 -0.0161,43.25017 L 564,220.5 l -44,0.0161 -44,0.0161 z M 73.5,214.35125 c 8.214215,-0.73352 20.004516,-0.7932 20.002349,-0.10125 -0.0013,0.4125 -5.289849,0.67435 -11.752349,0.5819 -6.4625,-0.0925 -10.175,-0.30875 -8.25,-0.48065 z M 248.37244,213.25 c -1.24387,-1.58606 -1.2085,-1.62143 0.37756,-0.37756 1.66575,1.30637 2.19548,2.12756 1.37244,2.12756 -0.20765,0 -0.99515,-0.7875 -1.75,-1.75 z m -5,-5 c -1.24387,-1.58606 -1.2085,-1.62143 0.37756,-0.37756 1.66575,1.30637 2.19548,2.12756 1.37244,2.12756 -0.20765,0 -0.99515,-0.7875 -1.75,-1.75 z m 62.20651,-15.83333 c 0.048,-1.16495 0.28494,-1.4019 0.60416,-0.60417 0.28887,0.72187 0.25335,1.58437 -0.0789,1.91667 -0.33229,0.33229 -0.56864,-0.25834 -0.52522,-1.3125 z M 236.77236,188 c 0,-2.475 0.19502,-3.4875 0.43337,-2.25 0.23836,1.2375 0.23836,3.2625 0,4.5 -0.23835,1.2375 -0.43337,0.225 -0.43337,-2.25 z m 34.54014,-9.68311 c 0.72187,-0.28887 1.58438,-0.25335 1.91667,0.0789 0.33229,0.33229 -0.25834,0.56864 -1.3125,0.52522 -1.16495,-0.048 -1.4019,-0.28494 -0.60417,-0.60416 z m -20.54347,-9.00988 c 0.97297,-0.25354 2.32297,-0.23687 3,0.0371 0.67703,0.27393 -0.11903,0.48137 -1.76903,0.46099 -1.65,-0.0204 -2.20394,-0.2445 -1.23097,-0.49804 z M 333.90499,154.75 332,152.5 l 2.25,1.90499 c 2.11444,1.79022 2.70524,2.59501 1.90499,2.59501 -0.18976,0 -1.20226,-1.0125 -2.25,-2.25 z m 59.67396,-24.33333 c 0.048,-1.16495 0.28494,-1.4019 0.60416,-0.60417 0.28887,0.72187 0.25335,1.58437 -0.0789,1.91667 -0.33229,0.33229 -0.56864,-0.25834 -0.52522,-1.3125 z m -175,-2 c 0.048,-1.16495 0.28494,-1.4019 0.60416,-0.60417 0.28887,0.72187 0.25335,1.58437 -0.0789,1.91667 -0.3323,0.33229 -0.56864,-0.25834 -0.52522,-1.3125 z m 0,-5 c 0.048,-1.16495 0.28494,-1.4019 0.60416,-0.60417 0.28887,0.72187 0.25335,1.58438 -0.0789,1.91667 -0.3323,0.33229 -0.56864,-0.25834 -0.52522,-1.3125 z m 37.649,-23.3265 C 254.90247,72.239142 244.84506,43.610261 230.96171,28.168635 228.40583,25.325886 225.63363,23 224.80125,23 c -0.83237,0 -2.4428,1.181534 -3.57873,2.625631 -4.31189,5.481684 -13.49756,7.748683 -20.1442,4.971539 C 193.73077,27.527169 185.5,17.529519 185.5,11.674697 c 0,-5.6218881 7.44901,-10.69111133 15.65113,-10.6509615 12.81647,0.062737 31.38972,13.2782825 42.78133,30.4404805 11.29291,17.013482 19.5138,44.293042 21.93452,72.785784 0.26868,3.1625 0.18353,5.7696 -0.18923,5.79355 -0.37276,0.0239 -2.52735,0.40203 -4.78797,0.84017 l -4.11023,0.79661 z m 20.39144,10.17669 -3.3806,-0.41306 0.64749,-6.1769 C 275.61663,87.169872 282.20862,64.347969 289.10173,51 c 10.79374,-20.901211 27.57189,-36.125155 44.02808,-39.94963 8.22723,-1.9120371 15.73838,0.893375 18.93325,7.071565 2.09046,4.042509 0.51314,8.755213 -4.89348,14.620705 -9.52396,10.332276 -20.42313,11.503807 -28.82825,3.098692 C 316.2286,33.728599 314.10236,32 313.61636,32 310.51423,32 297.81655,50.439051 292.91434,62.062637 287.40413,75.127852 282.5,96.115168 282.5,106.63099 c 0,2.91389 -0.41632,4.31571 -1.25,4.20897 -0.6875,-0.088 -2.77127,-0.34591 -4.63061,-0.5731 z M 187.3125,89.316886 c 0.72187,-0.288871 1.58437,-0.253344 1.91667,0.07895 0.33229,0.332292 -0.25834,0.568641 -1.3125,0.52522 -1.16495,-0.04798 -1.4019,-0.284941 -0.60417,-0.604167 z"
       id="path31" /><path
       style="fill:#100f1b"
       d="M 473.74001,176.75 474,130.5 l 46.25,-0.25999 46.25,-0.25998 V 176.49001 223 H 519.99001 473.48003 Z M 564,177 v -43.5 l -43.75,-0.26051 -43.75,-0.26051 V 177 221.02102 L 520.25,220.76051 564,220.5 Z M 258.72179,218.58553 C 246.62997,214.65352 238.53919,203.60921 237.71724,189.9133 236.92091,176.64413 241.69225,170 252.01754,170 c 3.76007,0 7.96152,1.79034 12.98246,5.53215 5.28257,3.93678 6.96227,3.9407 13.95069,0.0325 11.78399,-6.58998 21.17672,-5.68853 25.37466,2.4353 6.23235,12.06081 -2.56172,31.83729 -17.35143,39.02061 -6.13834,2.98137 -21.31159,3.82184 -28.25213,1.56492 z M -8.5,213.05902 c 0,-0.51754 0.5195288,-1.26207 1.1545085,-1.65451 0.7152993,-0.44208 0.8830623,-0.27432 0.440983,0.44098 C -7.4401496,212.71218 4.6125525,213 41.440983,213 68.423442,213 90.5,212.71397 90.5,212.36439 90.5,212.0148 85.492511,202.2273 79.372248,190.61439 73.251984,179.00147 67.836151,168.7125 67.337064,167.75 66.837977,166.7875 66.631532,166 66.878298,166 c 0.517016,0 22.671818,41.13567 25.447853,47.25 C 92.513435,213.6625 69.904167,214 42.083333,214 11.142783,214 -8.5,213.63459 -8.5,213.05902 Z M 0,197 c 1.9388289,-3.85 3.7501435,-7 4.0251435,-7 0.275,0 -1.0863146,3.15 -3.0251435,7 -1.93882891,3.85 -3.7501435,7 -4.0251435,7 -0.275,0 1.0863146,-3.15 3.0251435,-7 z m 10,-19 c 1.938829,-3.85 3.750143,-7 4.025143,-7 0.275,0 -1.086314,3.15 -3.025143,7 -1.9388289,3.85 -3.7501435,7 -4.0251435,7 -0.275,0 1.0863146,-3.15 3.0251435,-7 z m 10,-19 c 1.938829,-3.85 3.750143,-7 4.025143,-7 0.275,0 -1.086314,3.15 -3.025143,7 -1.938829,3.85 -3.750143,7 -4.025143,7 -0.275,0 1.086314,-3.15 3.025143,-7 z m 156.5,3.96437 c -7.20351,-1.50656 -16.56035,-6.62146 -19.95611,-10.90895 -5.82262,-7.35167 -7.89753,-17.68323 -6.11917,-30.46915 2.13826,-15.37353 9.89458,-26.372636 21.25923,-30.147367 6.70217,-2.226104 18.92993,-2.226104 25.6321,0 10.92622,3.629107 19.47356,15.017137 21.04056,28.033347 2.41421,20.0535 -5.57395,37.11933 -19.66208,42.00587 -5.85195,2.02977 -16.26244,2.72691 -22.19453,1.48625 z m 172,-0.39208 c -6.71023,-1.86226 -10.16216,-3.93968 -14.66686,-8.8267 -5.20003,-5.64136 -8.30669,-13.97438 -9.02291,-24.20217 -1.32832,-18.96879 7.96532,-34.490819 23.17439,-38.705382 5.17807,-1.434884 16.87489,-1.428636 22.07455,0.01179 9.61383,2.663261 17.75695,11.017832 21.05812,21.604932 2.42382,7.77335 2.96187,23.04119 1.04443,29.63694 -3.01618,10.37529 -11.82309,17.77634 -24.29815,20.4194 -8.17503,1.73203 -13.28494,1.74818 -19.36357,0.0612 z M 60,154 c -1.938829,-3.85 -3.300143,-7 -3.025143,-7 0.275,0 2.086314,3.15 4.025143,7 1.938829,3.85 3.300143,7 3.025143,7 -0.275,0 -2.086314,-3.15 -4.025143,-7 z M 30,140 c 1.938829,-3.85 3.750143,-7 4.025143,-7 0.275,0 -1.086314,3.15 -3.025143,7 -1.938829,3.85 -3.750143,7 -4.025143,7 -0.275,0 1.086314,-3.15 3.025143,-7 z m 20,-5 c -1.938829,-3.85 -3.300143,-7 -3.025143,-7 0.275,0 2.086314,3.15 4.025143,7 1.938829,3.85 3.300143,7 3.025143,7 -0.275,0 -2.086314,-3.15 -4.025143,-7 z M 39.050387,122.90057 c 1.421243,-2.80469 2.717869,-4.94219 2.881391,-4.75 0.163522,0.19218 0.833092,1.47443 1.487934,2.84943 1.09074,2.29028 1.065981,2.34512 -0.295139,0.65379 -1.400749,-1.74058 -1.605328,-1.61184 -3.57549,2.25 C 38.399731,126.15671 37.235917,128 36.96283,128 c -0.273087,0 0.666314,-2.29475 2.087557,-5.09943 z"
       id="path30" /></g><path
     style="fill:#ffffff;fill-opacity:1;stroke-width:0.823005"
     d="m 115.22064,234.53161 c -19.132569,-2.58613 -35.764943,-18.16525 -38.801151,-36.34406 -1.067057,-6.38883 -0.337993,-20.47127 1.40882,-27.21244 2.367197,-9.13531 5.959315,-15.31295 13.088961,-22.51006 10.58457,-10.68473 19.69149,-14.23787 37.99616,-14.82453 10.64719,-0.34124 18.35812,1.24591 27.32737,5.62483 11.16912,5.45293 22.66872,19.88019 23.79243,29.84968 0.23271,2.06455 0.74433,3.95225 1.13694,4.1949 0.94823,0.58604 0.91831,15.58796 -0.0375,18.80321 -0.41324,1.39009 -1.16268,4.3792 -1.66541,6.64247 -3.46088,15.58051 -18.13627,29.63032 -35.60565,34.08787 -7.25314,1.85074 -21.30887,2.6792 -28.64096,1.68813 z m 25.0872,-14.40871 c 2.67185,-0.69592 6.17019,-2.08474 7.77408,-3.08626 1.60389,-1.00152 3.62783,-2.1913 4.49764,-2.64395 2.10923,-1.09765 6.58888,-9.50583 8.33103,-15.63708 0.7717,-2.71592 1.73681,-5.67874 2.14467,-6.58404 0.94637,-2.10058 0.39672,-14.52327 -0.85165,-19.24861 -0.52477,-1.98634 -1.94938,-5.68987 -3.1658,-8.23005 -1.21643,-2.54019 -2.22153,-4.95897 -2.23356,-5.37509 -0.0415,-1.43373 -11.22914,-9.2992 -14.67511,-10.31729 -1.89908,-0.56107 -4.04019,-1.31956 -4.75803,-1.68553 -1.84023,-0.93819 -15.25013,-0.38226 -19.66767,0.81536 -7.05668,1.91309 -16.47388,7.76655 -16.47388,10.23969 0,0.56642 -1.10093,3.03338 -2.446512,5.48212 -1.345584,2.44875 -2.896683,6.4892 -3.446889,8.97879 -0.550205,2.48959 -1.232132,4.7117 -1.515391,4.93803 -0.28326,0.22633 -0.285055,5.0409 -0.004,10.69906 0.426554,8.58699 0.857146,11.04201 2.604866,14.85164 3.746156,8.16575 9.078656,12.58431 19.879636,16.47245 5.39466,1.94197 17.19645,2.10458 24.00656,0.33076 z"
     id="path61" /><path
     style="fill:#ffffff;fill-opacity:1;stroke-width:0.823005"
     d="m 296.29372,234.50423 c -8.91715,-1.10697 -18.18163,-4.47017 -25.14696,-9.12886 -11.53188,-7.713 -17.73166,-17.59762 -19.85313,-31.65284 -1.24701,-8.26172 -1.08199,-19.70898 0.37829,-26.2411 2.07685,-9.29022 12.53454,-22.70219 21.34279,-27.3721 9.31262,-4.93732 15.75674,-6.34474 29.02797,-6.33982 10.17551,0.004 12.84144,0.28685 18.09614,1.9215 7.2094,2.24272 11.84991,4.48602 14.41336,6.96764 1.01052,0.97826 2.53478,2.18218 3.38725,2.67538 4.65546,2.69342 13.91892,17.69105 14.90558,24.13227 0.24879,1.62424 0.8032,3.39988 1.23201,3.94586 0.42881,0.54599 0.53072,1.39551 0.22645,1.88782 -0.30426,0.4923 -0.11203,1.42668 0.42716,2.07638 1.58805,1.91347 1.34042,17.98342 -0.36681,23.80523 -4.61836,15.749 -16.13918,27.43127 -31.56956,32.01201 -5.56213,1.6512 -18.57345,2.2947 -26.50054,1.31063 z m 15.21351,-14.04878 c 6.33921,-1.10025 15.71748,-5.55821 19.09688,-9.0777 1.45024,-1.51035 2.6713,-3.01615 2.71348,-3.34622 0.0422,-0.33008 0.80256,-2.24112 1.68975,-4.24676 0.88719,-2.00565 1.8277,-4.88358 2.09003,-6.39541 0.26231,-1.51183 0.68958,-3.30431 0.94946,-3.98328 0.80124,-2.0933 0.87732,-5.75891 0.12913,-6.22131 -0.3907,-0.24147 -0.27279,-1.13972 0.26203,-1.99611 0.74187,-1.18791 0.74529,-2.00811 0.0145,-3.45961 -0.52688,-1.0464 -1.33969,-4.08547 -1.80626,-6.75349 -2.29119,-13.10196 -10.44375,-23.01093 -21.84693,-26.55369 -7.04348,-2.18827 -18.91734,-1.95699 -25.30911,0.49297 -14.07764,5.39597 -22.13914,19.95968 -20.94455,37.83793 0.79267,11.8631 6.16845,24.8085 11.71525,28.21147 10.88079,6.67539 17.61003,7.85799 31.24639,5.49121 z"
     id="path62" /></svg>
